<?xml version="1.0" encoding="UTF-8" standalone="no"?>
<!-- Created with Inkscape (http://www.inkscape.org/) -->

<svg
   version="1.1"
   id="svg2"
   width="2666.6667"
   height="2666.6667"
   viewBox="0 0 2666.6667 2666.6667"
   sodipodi:docname="vecteezy_icon-compare-line-style-simple-illustration-editable-stroke_4682939-0.eps"
   xmlns:inkscape="http://www.inkscape.org/namespaces/inkscape"
   xmlns:sodipodi="http://sodipodi.sourceforge.net/DTD/sodipodi-0.dtd"
   xmlns="http://www.w3.org/2000/svg"
   xmlns:svg="http://www.w3.org/2000/svg">
  <defs
     id="defs6" />
  <sodipodi:namedview
     id="namedview4"
     pagecolor="#ffffff"
     bordercolor="#000000"
     borderopacity="0.25"
     inkscape:showpageshadow="2"
     inkscape:pageopacity="0.0"
     inkscape:pagecheckerboard="0"
     inkscape:deskcolor="#d1d1d1" />
  <g
     id="g8"
     inkscape:groupmode="layer"
     inkscape:label="ink_ext_XXXXXX"
     transform="matrix(1.3333333,0,0,-1.3333333,0,2666.6667)">
    <g
       id="g10"
       transform="scale(0.1)">
      <path
         d="M 0,19999.2 H 19999.2 V 0 H 0 v 19999.2"
         style="fill:#f4f7fa;fill-opacity:1;fill-rule:evenodd;stroke:none"
         id="path12" />
      <path
         d="m 19082.4,848.445 h -190.6 c -8.8,0 -15.9,-7.164 -15.9,-15.918 V 641.973 c 0,-8.754 7.1,-15.918 15.9,-15.918 h 190.6 c 8.7,0 15.9,7.164 15.9,15.918 v 190.554 c 0,8.754 -7.2,15.918 -15.9,15.918"
         style="fill:#f4f7fa;fill-opacity:1;fill-rule:evenodd;stroke:none"
         id="path14" />
      <path
         d="m 18652.8,838.277 h -181.9 c -8.3,0 -15.1,-6.832 -15.1,-15.191 v -181.84 c 0,-8.359 6.8,-15.191 15.1,-15.191 h 181.9 c 8.3,0 15.2,6.832 15.2,15.191 v 181.84 c 0,8.359 -6.9,15.191 -15.2,15.191"
         style="fill:#f4f7fa;fill-opacity:1;fill-rule:evenodd;stroke:none"
         id="path16" />
      <path
         d="m 18223.2,828.109 h -173.1 c -8,0 -14.5,-6.507 -14.5,-14.464 V 640.516 c 0,-7.957 6.5,-14.461 14.5,-14.461 h 173.1 c 8,0 14.5,6.504 14.5,14.461 v 173.129 c 0,7.957 -6.5,14.464 -14.5,14.464"
         style="fill:#f4f7fa;fill-opacity:1;fill-rule:evenodd;stroke:none"
         id="path18" />
      <path
         d="m 17793.7,817.938 h -164.4 c -7.6,0 -13.8,-6.18 -13.8,-13.739 v -164.41 c 0,-7.555 6.2,-13.734 13.8,-13.734 h 164.4 c 7.5,0 13.7,6.179 13.7,13.734 v 164.41 c 0,7.559 -6.2,13.739 -13.7,13.739"
         style="fill:#f4f7fa;fill-opacity:1;fill-rule:evenodd;stroke:none"
         id="path20" />
      <path
         d="m 17364.1,807.766 h -155.7 c -7.1,0 -13,-5.852 -13,-13.008 V 639.063 c 0,-7.157 5.9,-13.008 13,-13.008 h 155.7 c 7.2,0 13,5.851 13,13.008 v 155.695 c 0,7.156 -5.8,13.008 -13,13.008"
         style="fill:#f4f7fa;fill-opacity:1;fill-rule:evenodd;stroke:none"
         id="path22" />
      <path
         d="m 16934.6,797.598 h -147 c -6.8,0 -12.3,-5.524 -12.3,-12.278 V 638.332 c 0,-6.754 5.5,-12.277 12.3,-12.277 h 147 c 6.7,0 12.2,5.523 12.2,12.277 V 785.32 c 0,6.754 -5.5,12.278 -12.2,12.278"
         style="fill:#f4f7fa;fill-opacity:1;fill-rule:evenodd;stroke:none"
         id="path24" />
      <path
         d="m 16505,787.426 h -138.3 c -6.3,0 -11.5,-5.196 -11.5,-11.551 v -138.27 c 0,-6.355 5.2,-11.55 11.5,-11.55 h 138.3 c 6.4,0 11.5,5.195 11.5,11.55 v 138.27 c 0,6.355 -5.1,11.551 -11.5,11.551"
         style="fill:#f4f7fa;fill-opacity:1;fill-rule:evenodd;stroke:none"
         id="path26" />
      <path
         d="m 16075.4,777.258 h -129.5 c -6,0 -10.8,-4.871 -10.8,-10.824 V 636.875 c 0,-5.949 4.8,-10.82 10.8,-10.82 h 129.5 c 6,0 10.9,4.871 10.9,10.82 v 129.559 c 0,5.953 -4.9,10.824 -10.9,10.824"
         style="fill:#f4f7fa;fill-opacity:1;fill-rule:evenodd;stroke:none"
         id="path28" />
      <path
         d="M 15645.9,767.086 H 15525 c -5.5,0 -10.1,-4.539 -10.1,-10.094 V 636.148 c 0,-5.554 4.6,-10.093 10.1,-10.093 h 120.9 c 5.5,0 10.1,4.539 10.1,10.093 v 120.844 c 0,5.555 -4.6,10.094 -10.1,10.094"
         style="fill:#f4f7fa;fill-opacity:1;fill-rule:evenodd;stroke:none"
         id="path30" />
      <path
         d="m 10420.1,16588.7 h 4768.1 c 472.1,0 901.1,-176.2 1212,-460.1 310.8,-283.8 503.7,-675.7 503.7,-1106.9 V 4977.5 c 0,-431.23 -192.9,-823.07 -503.7,-1106.94 -310.9,-283.87 -739.9,-460.08 -1212,-460.08 h -4468.6 -299.5 z M 9579.13,3410.48 H 4811.01 c -472.15,0 -901.16,176.21 -1211.97,460.08 -310.81,283.87 -503.73,675.71 -503.73,1106.94 v 10044.2 c 0,431.2 192.92,823.1 503.73,1106.9 310.81,283.9 739.82,460.1 1211.97,460.1 h 4768.12 z"
         style="fill:none;stroke:#3e454e;stroke-width:600.001;stroke-linecap:round;stroke-linejoin:round;stroke-miterlimit:2.61313;stroke-dasharray:none;stroke-opacity:1"
         id="path32" />
      <path
         d="m 15035.2,12180.8 -2173.7,-2173.7 2181.2,-2181.22 -580.5,-580.51 -2542.7,2542.72 -211.5,211.51 211.5,211.5 2542.7,2542.7 z"
         style="fill:none;stroke:#3e454e;stroke-width:600.001;stroke-linecap:round;stroke-linejoin:round;stroke-miterlimit:2.61313;stroke-dasharray:none;stroke-opacity:1"
         id="path34" />
      <path
         d="m 4948.43,12180.8 2173.75,-2173.7 -2181.25,-2181.22 580.52,-580.51 2542.73,2542.72 211.52,211.51 -211.52,211.5 -2542.73,2542.7 z"
         style="fill:none;stroke:#3e454e;stroke-width:600.001;stroke-linecap:round;stroke-linejoin:round;stroke-miterlimit:2.61313;stroke-dasharray:none;stroke-opacity:1"
         id="path36" />
      <path
         d="M 10420.1,17639.2 V 2360.03 H 9579.13 V 17639.2 Z"
         style="fill:none;stroke:#3e454e;stroke-width:600.001;stroke-linecap:round;stroke-linejoin:round;stroke-miterlimit:2.61313;stroke-dasharray:none;stroke-opacity:1"
         id="path38" />
    </g>
  </g>
</svg>
