<?xml version="1.0" encoding="UTF-8" standalone="no"?>
<!-- Created with Inkscape (http://www.inkscape.org/) -->

<svg
   version="1.1"
   id="svg2"
   width="6029.3335"
   height="4266.6665"
   viewBox="0 0 6029.3335 4266.6665"
   sodipodi:docname="vecteezy_location-pin-icon-i-m-here-vector-illustration-of-map_7818448.eps"
   xmlns:inkscape="http://www.inkscape.org/namespaces/inkscape"
   xmlns:sodipodi="http://sodipodi.sourceforge.net/DTD/sodipodi-0.dtd"
   xmlns="http://www.w3.org/2000/svg"
   xmlns:svg="http://www.w3.org/2000/svg">
  <defs
     id="defs6" />
  <sodipodi:namedview
     id="namedview4"
     pagecolor="#ffffff"
     bordercolor="#000000"
     borderopacity="0.25"
     inkscape:showpageshadow="2"
     inkscape:pageopacity="0.0"
     inkscape:pagecheckerboard="0"
     inkscape:deskcolor="#d1d1d1" />
  <g
     id="g8"
     inkscape:groupmode="layer"
     inkscape:label="ink_ext_XXXXXX"
     transform="matrix(1.3333333,0,0,-1.3333333,0,4266.6667)">
    <g
       id="g10"
       transform="scale(0.1)">
      <path
         d="M 0,0 H 45220 V 32000 H 0 Z"
         style="fill:#e0dcd5;fill-opacity:1;fill-rule:nonzero;stroke:none"
         id="path12" />
      <path
         d="m 16959.2,5909.4 c -4181.6,-457.5 -8366.25,8.6 -12552.92,-417.1 2931.22,5032.2 5861.52,10064 8792.22,15095.8 2237.6,414.8 4468.3,852.8 6691.2,1324.3 -977.4,-5030.8 -1954.1,-10971.2 -2930.5,-16003"
         style="fill:#4d4d4d;fill-opacity:1;fill-rule:nonzero;stroke:none"
         id="path14" />
      <path
         d="m 16959.2,5909.4 c 2043.1,-234 4087,-227.5 6131.4,-221.1 1968.5,6.2 3937.6,12.4 5907.2,-196 -977.5,5032.2 -1953.2,10064 -2931.2,15095.8 -2067,414.4 -4126.1,851 -6176.9,1324.3 -977.5,-5030.8 -1953.2,-10971.2 -2930.5,-16003"
         style="fill:#4d4d4d;fill-opacity:1;fill-rule:nonzero;stroke:none"
         id="path16" />
      <path
         d="m 40806.7,5826.4 c -3838,-459.3 -7965.3,90.7 -11808.9,-334.1 -977.5,5032.2 -1953.2,10064 -2931.2,15095.8 1897.5,411.7 3787.5,842.4 5664,1324.3 2929,-5030.8 6146.3,-11053.3 9076.1,-16086"
         style="fill:#4d4d4d;fill-opacity:1;fill-rule:nonzero;stroke:none"
         id="path18" />
      <path
         d="M 16959.2,6816.7 C 12777.6,6358.7 8592.95,5918 4406.28,5492.3 c 2931.22,5032.2 5861.52,10064 8792.22,15095.8 2237.6,414.8 4468.3,852.8 6691.2,1324.3 -977.4,-5030.8 -1954.1,-10064 -2930.5,-15095.7"
         style="fill:#fdfdfd;fill-opacity:1;fill-rule:nonzero;stroke:none"
         id="path20" />
      <path
         d="m 40521.1,6816.7 c -3838.5,-458.9 -7679.7,-899.6 -11523.3,-1324.4 -977.5,5032.2 -1953.2,10064 -2931.2,15095.8 1897.5,411.7 3787.5,842.4 5664,1324.3 2929,-5030.8 5860.6,-10064 8790.5,-15095.7"
         style="fill:#fdfdfd;fill-opacity:1;fill-rule:nonzero;stroke:none"
         id="path22" />
      <path
         d="m 16959.2,6816.7 c 4010.3,-458.9 8023.3,-899.6 12038.6,-1324.4 -977.5,5032.2 -1953.2,10064 -2931.2,15095.8 -2067,414.4 -4126.1,851 -6176.9,1324.3 -977.5,-5030.8 -1953.2,-10064 -2930.5,-15095.7"
         style="fill:#f1f1f1;fill-opacity:1;fill-rule:nonzero;stroke:none"
         id="path24" />
      <path
         d="m 13467.2,14732.6 v 5624.7 l -5728.88,-9895.4 5510.08,3973.5 218.8,297.2"
         style="fill:#ffeabb;fill-opacity:1;fill-rule:nonzero;stroke:none"
         id="path26" />
      <path
         d="m 18423.6,14395.6 -2464.5,-1047.4 1980.5,-1458.5 z"
         style="fill:#94da85;fill-opacity:1;fill-rule:nonzero;stroke:none"
         id="path28" />
      <path
         d="M 16454.5,11919 15108,7116.5 c 1165.2,121.3 1948.9,201.7 1948.9,201.7 l 702.8,3639.7 -1305.2,961.1"
         style="fill:#ffeabb;fill-opacity:1;fill-rule:nonzero;stroke:none"
         id="path30" />
      <path
         d="M 15716.8,12462.3 13866.7,13824.7 6688.15,8647.9 5155.74,6001.1 c 193.53,84.4 5575.96,657.8 9035.36,1019.7 l 1525.7,5441.5"
         style="fill:#94da85;fill-opacity:1;fill-rule:nonzero;stroke:none"
         id="path32" />
      <path
         d="m 22358.1,16999.1 4069.6,1729.6 -316.3,1628.6 -3087.7,625.5 -665.6,-3983.7"
         style="fill:#ead1a4;fill-opacity:1;fill-rule:nonzero;stroke:none"
         id="path34" />
      <path
         d="m 26594.5,17869.2 0.2,-0.7 -616.1,-261.8 -1035.9,-6200.2 3391.7,-2497.7 -1739.9,8960.4"
         style="fill:#dbccb2;fill-opacity:1;fill-rule:nonzero;stroke:none"
         id="path36" />
      <path
         d="m 21436.1,8248.1 -12.5,9.2 -419.4,-1378.1 2270.9,-252.6 1768.2,10582.5 -6612,-2810.2 -488.1,-2514.3 3744.5,-2757.5 -0.5,-1.8 0.5,0.1 -8.1,-26.7 -243.5,-850.6"
         style="fill:#86c973;fill-opacity:1;fill-rule:nonzero;stroke:none"
         id="path38" />
      <path
         d="m 20691.8,8796.2 -2929.3,2157.2 -705.6,-3635.2 3080.8,-342.6 554.1,1820.6"
         style="fill:#ead1a4;fill-opacity:1;fill-rule:nonzero;stroke:none"
         id="path40" />
      <path
         d="m 21422.8,16601.5 760.5,4551.5 -2348.7,475.8 -1206.3,-6215 2794.5,1187.7"
         style="fill:#dbccb2;fill-opacity:1;fill-rule:nonzero;stroke:none"
         id="path42" />
      <path
         d="m 24784.3,10458.8 -656.2,-3927.1 4770.9,-530.6 -323.5,1665.8 -3791.2,2791.9"
         style="fill:#86c973;fill-opacity:1;fill-rule:nonzero;stroke:none"
         id="path44" />
      <path
         d="m 37410.8,11487.5 -2412.3,4234.2 40.6,-5430.3 c 815.2,410.5 1628.9,820.9 2371.7,1196.1"
         style="fill:#86c973;fill-opacity:1;fill-rule:nonzero;stroke:none"
         id="path46" />
      <path
         d="M 26598.2,17850.1 28340.9,8875 c 496.3,-375.3 1015.9,-767.6 1536.3,-1160 800.2,387.6 2496.8,1236 4308.1,2146.8 l -55.2,7384.2 -1732.4,3040.9 c -1409.1,-592 -3738.6,-1570.8 -5799.5,-2436.8"
         style="fill:#f2e8d0;fill-opacity:1;fill-rule:nonzero;stroke:none"
         id="path48" />
      <path
         d="m 29325.7,19967 2618.8,1115.5 -327.5,574.7 -2978.7,-703.3 687.4,-986.9"
         style="fill:#86c973;fill-opacity:1;fill-rule:nonzero;stroke:none"
         id="path50" />
      <path
         d="m 28574.4,7672.4 324.6,-1671.3 1691.1,189.4 z"
         style="fill:#94da85;fill-opacity:1;fill-rule:nonzero;stroke:none"
         id="path52" />
      <path
         d="m 28520.3,19623.9 -778.8,1118.2 -1630.1,-384.8 315.6,-1625.1 2093.3,891.7"
         style="fill:#ffeabb;fill-opacity:1;fill-rule:nonzero;stroke:none"
         id="path54" />
      <path
         d="m 35573.7,6748.8 4264.6,477.8 -1336.6,2346 c -273.8,-80.9 -543.8,-189.8 -806.2,-327.8 -1043.8,-549.4 -1775.2,-1459.2 -2121.8,-2496"
         style="fill:#d6d5d1;fill-opacity:1;fill-rule:nonzero;stroke:none"
         id="path56" />
      <path
         d="m 37206.4,9582.1 c 344.5,181.3 702.2,312.3 1064.5,395.6 l -476.5,836.5 -7124.6,-3696.6 c 361.8,-272.6 718.2,-541 1061.4,-799.2 l 3239,362.8 c 278.4,1202.3 1058.4,2281.1 2236.2,2900.9"
         style="fill:#ead1a4;fill-opacity:1;fill-rule:nonzero;stroke:none"
         id="path58" />
      <path
         d="m 18431.9,21349.3 c -181.5,-1652.2 -1296.9,-3130 -2976.7,-3692 -374.7,-125.3 -754.5,-197.3 -1131,-220.2 v -2885 l 833.1,-613.5 3462.1,1471.5 1215.2,6218.7 -1402.7,-279.5"
         style="fill:#f2e8d0;fill-opacity:1;fill-rule:nonzero;stroke:none"
         id="path60" />
      <path
         d="M 17915.6,21246.5 14324.2,20531 v -2634.9 c 234.8,37.7 469.6,95 702.5,172.9 1503.2,502.9 2554.4,1739.1 2888.9,3177.5"
         style="fill:#aaaaaa;fill-opacity:1;fill-rule:nonzero;stroke:none"
         id="path62" />
      <path
         d="m 22358.1,14406.8 -2717,-1225.7 2239.6,-1574.8 477.4,2800.5"
         style="fill:#e6e6e6;fill-opacity:1;fill-rule:nonzero;stroke:none"
         id="path64" />
      <path
         d="m 21306.8,12856.6 c -308.6,0 -559,41.9 -559,93.4 0,51.8 250.4,144.8 559,144.8 308.8,0 559.2,-93 559.2,-144.8 0,-51.5 -250.4,-93.4 -559.2,-93.4"
         style="fill:#636363;fill-opacity:1;fill-rule:nonzero;stroke:none"
         id="path66" />
      <path
         d="m 21306.9,18721.7 c -1598.3,0 -2893.6,1295.7 -2893.6,2893.9 0,1598.5 1295.3,2893.6 2893.6,2893.6 h 0.3 v 742.2 h -0.3 c -2008,0 -3635.8,-1627.5 -3635.8,-3635.8 0,-2008.6 3635.8,-8434.6 3635.8,-8434.6 l 0.3,0.5 v 5540.2 h -0.3"
         style="fill:#ed1c24;fill-opacity:1;fill-rule:nonzero;stroke:none"
         id="path68" />
      <path
         d="m 21306.9,20295 c -729.3,0 -1320.3,591.1 -1320.3,1320.6 0,729.5 591,1320.4 1320.3,1320.4 l 0.3,-0.1 v 728.2 h -0.3 c -1131.4,0 -2048.6,-917.6 -2048.6,-2048.5 0,-1131.4 917.2,-2048.7 2048.6,-2048.7 h 0.3 v 728.1 h -0.3"
         style="fill:#ed1c24;fill-opacity:1;fill-rule:nonzero;stroke:none"
         id="path70" />
      <path
         d="m 19986.6,21615.6 c 0,-729.5 591,-1320.6 1320.3,-1320.6 h 0.3 v 2640.9 l -0.3,0.1 c -729.3,0 -1320.3,-590.9 -1320.3,-1320.4"
         style="fill:#ffffff;fill-opacity:1;fill-rule:nonzero;stroke:none"
         id="path72" />
      <path
         d="m 21307.2,25251.4 v -742.2 c 1597.8,-0.2 2893.9,-1295.2 2893.9,-2893.6 0,-1598.1 -1296.1,-2893.7 -2893.9,-2893.9 v -5540.2 c 25.7,45.4 3635.5,6432.7 3635.5,8434.1 0,2008.2 -1627.6,3635.6 -3635.5,3635.8"
         style="fill:#ed1c24;fill-opacity:1;fill-rule:nonzero;stroke:none"
         id="path74" />
      <path
         d="m 21307.2,13181.5 v 5540.2 c 1597.8,0.2 2893.9,1295.8 2893.9,2893.9 v 0 0 c 0,1598.4 -1296.1,2893.4 -2893.9,2893.6 v 742.2 c 2007.9,-0.2 3635.5,-1627.6 3635.5,-3635.8 0,-2001.4 -3609.8,-8388.7 -3635.5,-8434.1"
         style="fill:#c11d23;fill-opacity:1;fill-rule:nonzero;stroke:none"
         id="path76" />
      <path
         d="m 23355.8,21615.6 c 0,1130.8 -917.4,2048.3 -2048.6,2048.5 v -728.2 c 729.4,-0.1 1320.6,-590.9 1320.6,-1320.3 0,-729.4 -591.2,-1320.5 -1320.6,-1320.6 v -728.1 c 1131.2,0.1 2048.6,917.4 2048.6,2048.7"
         style="fill:#ed1c24;fill-opacity:1;fill-rule:nonzero;stroke:none"
         id="path78" />
      <path
         d="m 21307.2,19566.9 v 728.1 c 729.4,0.1 1320.6,591.2 1320.6,1320.6 v 0 0 0 0 0 0 c 0,729.4 -591.2,1320.2 -1320.6,1320.3 v 728.2 c 1131.2,-0.2 2048.6,-917.7 2048.6,-2048.5 0,-237.2 -40.3,-465 -114.5,-676.9 -75.2,-215 -185.2,-413.5 -323.4,-589 -375.1,-476.6 -957.3,-782.7 -1610.7,-782.8"
         style="fill:#c11d23;fill-opacity:1;fill-rule:nonzero;stroke:none"
         id="path80" />
      <path
         d="m 22627.8,21615.6 c 0,729.4 -591.2,1320.2 -1320.6,1320.3 V 20295 c 729.4,0.1 1320.6,591.2 1320.6,1320.6"
         style="fill:#ffffff;fill-opacity:1;fill-rule:nonzero;stroke:none"
         id="path82" />
      <path
         d="m 21307.2,20295 v 2640.9 c 729.4,-0.1 1320.6,-590.9 1320.6,-1320.3 0,-729.4 -591.2,-1320.5 -1320.6,-1320.6"
         style="fill:#cfcece;fill-opacity:1;fill-rule:nonzero;stroke:none"
         id="path84" />
    </g>
  </g>
</svg>
