<?xml version="1.0" encoding="UTF-8"?>
<svg xmlns="http://www.w3.org/2000/svg" xmlns:xlink="http://www.w3.org/1999/xlink" width="2122pt" height="2122pt" viewBox="0 0 2122 2122" version="1.1">
<g id="surface1">
<path style=" stroke:none;fill-rule:nonzero;fill:rgb(81.999207%,82.699585%,83.099365%);fill-opacity:1;" d="M 1373.300781 1299.488281 L 1247.109375 1363.878906 L 1190.980469 1253.878906 L 1317.171875 1189.488281 L 1373.300781 1299.488281 "/>
<path style=" stroke:none;fill-rule:nonzero;fill:rgb(3.49884%,28.999329%,48.199463%);fill-opacity:1;" d="M 1461.589844 493.789063 C 1591.039063 747.46875 1490.320313 1058.050781 1236.628906 1187.488281 C 982.949219 1316.929688 672.363281 1216.210938 542.925781 962.53125 C 413.484375 708.851563 514.203125 398.261719 767.886719 268.820313 C 1021.570313 139.378906 1332.148438 240.101563 1461.589844 493.789063 "/>
<path style=" stroke:none;fill-rule:nonzero;fill:rgb(81.199646%,90.19928%,96.899414%);fill-opacity:1;" d="M 1403.621094 523.371094 C 1516.71875 745.03125 1428.71875 1016.421875 1207.050781 1129.519531 C 985.382813 1242.621094 714 1154.609375 600.898438 932.949219 C 487.796875 711.28125 575.804688 439.898438 797.46875 326.800781 C 1019.128906 213.691406 1290.519531 301.699219 1403.621094 523.371094 "/>
<path style=" stroke:none;fill-rule:nonzero;fill:rgb(67.498779%,85.499573%,96.099854%);fill-opacity:1;" d="M 1242.269531 1055.339844 C 1020.601563 1168.449219 749.222656 1080.441406 636.117188 858.769531 C 576.722656 742.371094 572.863281 612.289063 614.621094 498.578125 C 538.734375 627 528.085938 790.25 600.898438 932.949219 C 714 1154.609375 985.386719 1242.621094 1207.050781 1129.519531 C 1312.308594 1075.808594 1387.359375 986.378906 1425.121094 883.558594 C 1383.128906 954.621094 1321.230469 1015.050781 1242.269531 1055.339844 "/>
<path style=" stroke:none;fill-rule:nonzero;fill:rgb(3.49884%,28.999329%,48.199463%);fill-opacity:1;" d="M 1365.960938 1213.308594 L 1181.628906 1307.359375 L 1125.5 1197.359375 L 1309.828125 1103.300781 L 1365.960938 1213.308594 "/>
<path style=" stroke:none;fill-rule:nonzero;fill:rgb(7.798767%,38.398743%,68.598938%);fill-opacity:1;" d="M 1677.78125 1852.171875 C 1735.570313 1965.429688 1567.421875 2035.710938 1515.921875 1934.761719 C 1464.410156 1833.820313 1223.199219 1361.089844 1223.199219 1361.089844 L 1385.070313 1278.5 C 1385.070313 1278.5 1619.988281 1738.910156 1677.78125 1852.171875 "/>
<path style=" stroke:none;fill-rule:nonzero;fill:rgb(0%,33.299255%,65.499878%);fill-opacity:1;" d="M 1579.011719 1902.570313 C 1527.5 1801.621094 1286.300781 1328.890625 1286.300781 1328.890625 L 1223.199219 1361.089844 C 1223.199219 1361.089844 1464.410156 1833.820313 1515.921875 1934.769531 C 1549.210938 2000.019531 1631.179688 1993.671875 1669.410156 1950.46875 C 1634.96875 1954.511719 1598.578125 1940.921875 1579.011719 1902.570313 "/>
<path style=" stroke:none;fill-rule:nonzero;fill:rgb(91.398621%,95.698547%,98.799133%);fill-opacity:1;" d="M 1303.308594 531.96875 C 1280.570313 615.898438 1158.859375 655.960938 1031.441406 621.449219 C 904.027344 586.941406 819.171875 490.921875 841.90625 406.988281 C 864.640625 323.058594 986.359375 282.988281 1113.769531 317.511719 C 1241.191406 352.019531 1326.039063 448.039063 1303.308594 531.96875 "/>
</g>
</svg>
