<?xml version="1.0" encoding="UTF-8" standalone="no"?>
<svg
   xmlns:dc="http://purl.org/dc/elements/1.1/"
   xmlns:cc="http://creativecommons.org/ns#"
   xmlns:rdf="http://www.w3.org/1999/02/22-rdf-syntax-ns#"
   xmlns:svg="http://www.w3.org/2000/svg"
   xmlns="http://www.w3.org/2000/svg"
   viewBox="0 0 4000 2666.6667"
   height="2666.6667"
   width="4000"
   xml:space="preserve"
   id="svg2"
   version="1.1"><metadata
     id="metadata8"><rdf:RDF><cc:Work
         rdf:about=""><dc:format>image/svg+xml</dc:format><dc:type
           rdf:resource="http://purl.org/dc/dcmitype/StillImage" /></cc:Work></rdf:RDF></metadata><defs
     id="defs6" /><g
     transform="matrix(1.3333333,0,0,-1.3333333,0,2666.6667)"
     id="g10"><g
       transform="scale(0.1)"
       id="g12"><g
         transform="scale(1.84049)"
         id="g14"><path
           id="path16"
           style="fill:#fdd5cd;fill-opacity:1;fill-rule:nonzero;stroke:none"
           d="M 16300,0 H 0.0021224 V 10866.7 H 16300 V 0" /></g><path
         id="path18"
         style="fill:#c3afd3;fill-opacity:1;fill-rule:nonzero;stroke:none"
         d="M 10000,0 H 0.0078125 V 10000 H 10000 V 0" /><g
         transform="scale(1.22699)"
         id="g20"><path
           id="path22"
           style="fill:#efbbcf;fill-opacity:1;fill-rule:nonzero;stroke:none"
           d="M 8150,8150 H 0.00636719 v 8150 H 8150 V 8150" /></g><g
         transform="scale(1.22699)"
         id="g24"><path
           id="path26"
           style="fill:#8377a8;fill-opacity:1;fill-rule:nonzero;stroke:none"
           d="M 16300,0 H 8150 v 8150 h 8150 V 0" /></g><g
         transform="scale(1.22699)"
         id="g28"><path
           id="path30"
           style="fill:#c3afd3;fill-opacity:1;fill-rule:nonzero;stroke:none"
           d="M 16300,8150 H 8150 v 8150 h 8150 V 8150" /></g><g
         transform="scale(1.84049)"
         id="g32"><path
           id="path34"
           style="fill:#efbbcf;fill-opacity:1;fill-rule:nonzero;stroke:none"
           d="M 16300,5433.33 H 10866.7 V 10866.7 H 16300 V 5433.33" /></g><g
         transform="scale(1.84049)"
         id="g36"><path
           id="path38"
           style="fill:#efbbcf;fill-opacity:1;fill-rule:nonzero;stroke:none"
           d="M 16300,5433.33 H 10866.7 V 8150 H 16300 V 5433.33" /></g><g
         transform="scale(1.84049)"
         id="g40"><path
           id="path42"
           style="fill:#efbbcf;fill-opacity:1;fill-rule:nonzero;stroke:none"
           d="M 16300,0 H 10866.7 V 5433.33 H 16300 V 0" /></g><g
         transform="scale(1.84049)"
         id="g44"><path
           id="path46"
           style="fill:#efbbcf;fill-opacity:1;fill-rule:nonzero;stroke:none"
           d="m 14941.7,6791.67 c -750.2,0 -1358.4,-608.15 -1358.4,-1358.34 H 16300 c 0,750.19 -608.2,1358.34 -1358.3,1358.34" /></g><g
         transform="scale(1.22699)"
         id="g48"><path
           id="path50"
           style="fill:#fdd5cd;fill-opacity:1;fill-rule:nonzero;stroke:none"
           d="M 0,16300 C 0.00318359,14049.4 1824.44,12225 4075.01,12225 L 4075,16300 H 0" /></g><g
         transform="scale(1.22699)"
         id="g52"><path
           id="path54"
           style="fill:#fdd5cd;fill-opacity:1;fill-rule:nonzero;stroke:none"
           d="m 8150,12225 c 0,2250.6 -1824.44,4075 -4075,4075 l 0.01,-4075 H 8150" /></g><g
         transform="scale(1.84049)"
         id="g56"><path
           id="path58"
           style="fill:#c3afd3;fill-opacity:1;fill-rule:nonzero;stroke:none"
           d="m 16300,5433.33 c -1500.4,0 -2716.7,-1216.3 -2716.7,-2716.66 H 16300 v 2716.66" /></g><g
         transform="scale(1.84049)"
         id="g60"><path
           id="path62"
           style="fill:#c3afd3;fill-opacity:1;fill-rule:nonzero;stroke:none"
           d="m 16300,0 c 0,1500.36 -1216.3,2716.67 -2716.7,2716.67 V 0 H 16300" /></g><g
         transform="scale(1.84049)"
         id="g64"><path
           id="path66"
           style="fill:#c3afd3;fill-opacity:1;fill-rule:nonzero;stroke:none"
           d="M 13583.3,2716.67 C 13583.3,1216.31 14799.6,0 16300,0 v 2716.67 h -2716.7" /></g><g
         transform="scale(1.84049)"
         id="g68"><path
           id="path70"
           style="fill:#efbbcf;fill-opacity:1;fill-rule:nonzero;stroke:none"
           d="m 13583.3,2716.67 c 1500.4,0 2716.7,1216.3 2716.7,2716.66 H 13583.3 V 2716.67" /></g><g
         transform="scale(1.53374)"
         id="g72"><path
           id="path74"
           style="fill:#c3afd3;fill-opacity:1;fill-rule:nonzero;stroke:none"
           d="m 16300,3260 c 0,1800.43 -1459.6,3260 -3260,3260 V 3260 h 3260" /></g><g
         transform="scale(1.53374)"
         id="g76"><path
           id="path78"
           style="fill:#8377a8;fill-opacity:1;fill-rule:nonzero;stroke:none"
           d="m 13040,6520 c 0,-1800.43 1459.6,-3260 3260,-3260 v 3260 h -3260" /></g><path
         id="path80"
         style="fill:#fdd5cd;fill-opacity:1;fill-rule:nonzero;stroke:none"
         d="M 15000,5000 C 12238.6,5000 10000,2761.4 10000,0 h 5000 v 5000" /><path
         id="path82"
         style="fill:#c3afd3;fill-opacity:1;fill-rule:nonzero;stroke:none"
         d="m 10000,0 c 2761.4,0 5000,2238.6 5000,5000 H 10000 V 0" /><g
         transform="scale(1.22699)"
         id="g84"><path
           id="path86"
           style="fill:#fdd5cd;fill-opacity:1;fill-rule:nonzero;stroke:none"
           d="m 12225,0 c 2250.5,0 4075,1824.46 4075,4075 H 12225 V 0" /></g><path
         id="path88"
         style="fill:#8377a8;fill-opacity:1;fill-rule:nonzero;stroke:none"
         d="M 0.0078125,15000 C 0.0078125,12238.6 2238.58,10000 5000.01,10000 v 5000 H 0.0078125" /><path
         id="path90"
         style="fill:#8377a8;fill-opacity:1;fill-rule:nonzero;stroke:none"
         d="m 10000,10000 c 0,2761.4 -2238.57,5000 -4999.99,5000 V 10000 H 10000" /><g
         transform="scale(1.22699)"
         id="g92"><path
           id="path94"
           style="fill:#efbbcf;fill-opacity:1;fill-rule:nonzero;stroke:none"
           d="m 16300,16300 c -2250.5,0 -4075,-1824.4 -4075,-4075 h 4075 v 4075" /></g><g
         transform="scale(1.53374)"
         id="g96"><path
           id="path98"
           style="fill:#efbbcf;fill-opacity:1;fill-rule:nonzero;stroke:none"
           d="m 13040,9780 c 1800.4,0 3260,1459.5 3260,3260 H 13040 V 9780" /></g><g
         transform="scale(1.53374)"
         id="g100"><path
           id="path102"
           style="fill:#c3afd3;fill-opacity:1;fill-rule:nonzero;stroke:none"
           d="m 16300,13040 c -1800.4,0 -3260,-1459.6 -3260,-3260 h 3260 v 3260" /></g><g
         transform="scale(1.53374)"
         id="g104"><path
           id="path106"
           style="fill:#c3afd3;fill-opacity:1;fill-rule:nonzero;stroke:none"
           d="m 13040,9780 c 0,-1800.45 1459.6,-3260 3260,-3260 v 3260 h -3260" /></g><g
         transform="scale(1.53374)"
         id="g108"><path
           id="path110"
           style="fill:#fdd5cd;fill-opacity:1;fill-rule:nonzero;stroke:none"
           d="m 16300,6520 c 0,1800.45 -1459.6,3260 -3260,3260 V 6520 h 3260" /></g><g
         transform="scale(1.53374)"
         id="g112"><path
           id="path114"
           style="fill:#c3afd3;fill-opacity:1;fill-rule:nonzero;stroke:none"
           d="M 13040,3260 C 13040,1459.57 14499.6,0 16300,0 v 3260 h -3260" /></g><g
         transform="scale(1.84049)"
         id="g116"><path
           id="path118"
           style="fill:#c3afd3;fill-opacity:1;fill-rule:nonzero;stroke:none"
           d="M 13583.3,10866.7 C 13583.3,9366.29 14799.6,8150 16300,8150 v 2716.7 h -2716.7" /></g><g
         transform="scale(1.84049)"
         id="g120"><path
           id="path122"
           style="fill:#efbbcf;fill-opacity:1;fill-rule:nonzero;stroke:none"
           d="m 16300,8150 c 0,1500.37 -1216.3,2716.7 -2716.7,2716.7 V 8150 H 16300" /></g><g
         transform="scale(1.84049)"
         id="g124"><path
           id="path126"
           style="fill:#efbbcf;fill-opacity:1;fill-rule:nonzero;stroke:none"
           d="m 13583.3,5433.33 c 1500.4,0 2716.7,1216.29 2716.7,2716.67 H 13583.3 V 5433.33" /></g><g
         transform="scale(1.22699)"
         id="g128"><path
           id="path130"
           style="fill:#c3afd3;fill-opacity:1;fill-rule:nonzero;stroke:none"
           d="m 12225,4075 c 2250.5,0 4075,1824.46 4075,4075 H 12225 V 4075" /></g><path
         id="path132"
         style="fill:#fdd5cd;fill-opacity:1;fill-rule:nonzero;stroke:none"
         d="m 10000,10000 c 0,-2761.4 2238.6,-5000 5000,-5000 v 5000 h -5000" /><path
         id="path134"
         style="fill:#fdd5cd;fill-opacity:1;fill-rule:nonzero;stroke:none"
         d="m 10000,5000 c 0,2761.4 -2238.57,5000 -4999.99,5000 V 5000 H 10000" /><path
         id="path136"
         style="fill:#efbbcf;fill-opacity:1;fill-rule:nonzero;stroke:none"
         d="M 5000.01,10000 C 2238.59,10000 0.0078125,7761.4 0.0078125,5000 H 5000.01 v 5000" /><path
         id="path138"
         style="fill:#8377a8;fill-opacity:1;fill-rule:nonzero;stroke:none"
         d="M 0.00390625,5000 C 0.00390625,2238.6 2238.58,0 5000,0 V 5000 H 0.00390625" /><path
         id="path140"
         style="fill:#8377a8;fill-opacity:1;fill-rule:nonzero;stroke:none"
         d="m 10000,0 c 0,2761.4 -2238.57,5000 -4999.99,5000 V 0 H 10000" /><path
         id="path142"
         style="fill:#efbbcf;fill-opacity:1;fill-rule:nonzero;stroke:none"
         d="M 5000.01,5000 C 5000.01,2238.6 7238.58,0 10000,0 V 5000 H 5000.01" /><g
         transform="scale(1.22699)"
         id="g144"><path
           id="path146"
           style="fill:#c3afd3;fill-opacity:1;fill-rule:nonzero;stroke:none"
           d="m 4075.01,16300 c 0,-2250.6 1824.43,-4075 4074.99,-4075 v 4075 H 4075.01" /></g><path
         id="path148"
         style="fill:#efbbcf;fill-opacity:1;fill-rule:nonzero;stroke:none"
         d="m 15000,10000 c 0,2761.4 -2238.6,5000 -5000,5000 v -5000 h 5000" /><g
         transform="scale(1.22699)"
         id="g150"><path
           id="path152"
           style="fill:#efbbcf;fill-opacity:1;fill-rule:nonzero;stroke:none"
           d="m 12225,8150 c 2250.5,0 4075,1824.43 4075,4075 H 12225 V 8150" /></g><g
         transform="scale(1.22699)"
         id="g154"><path
           id="path156"
           style="fill:#8377a8;fill-opacity:1;fill-rule:nonzero;stroke:none"
           d="m 12225,14262.5 c 0,-1125.3 -912.2,-2037.5 -2037.5,-2037.5 -1125.27,0 -2037.5,912.2 -2037.5,2037.5 0,1125.3 912.23,2037.5 2037.5,2037.5 1125.3,0 2037.5,-912.2 2037.5,-2037.5" /></g><g
         transform="scale(1.84049)"
         id="g158"><path
           id="path160"
           style="fill:#fdd5cd;fill-opacity:1;fill-rule:nonzero;stroke:none"
           d="M 16300,1358.33 C 16300,608.153 15691.8,0 14941.7,0 c -750.2,0 -1358.4,608.153 -1358.4,1358.33 0,750.18 608.2,1358.34 1358.4,1358.34 750.1,0 1358.3,-608.16 1358.3,-1358.34" /></g><g
         transform="scale(1.84049)"
         id="g162"><path
           id="path164"
           style="fill:#fdd5cd;fill-opacity:1;fill-rule:nonzero;stroke:none"
           d="m 16300,8150 c -1500.4,0 -2716.7,-1216.29 -2716.7,-2716.67 H 16300 V 8150" /></g></g></g></svg>